<mxfile host="app.diagrams.net" modified="2023-10-27T06:12:29.256Z" agent="Mozilla/5.0 (Windows NT 10.0; Win64; x64) AppleWebKit/537.36 (KHTML, like Gecko) Chrome/118.0.0.0 Safari/537.36" etag="-dFeKcF8YCzg9dURS9M6" version="22.0.8" type="github">
  <diagram id="C5RBs43oDa-KdzZeNtuy" name="Page-1">
    <mxGraphModel dx="792" dy="1100" grid="1" gridSize="10" guides="1" tooltips="1" connect="1" arrows="1" fold="1" page="1" pageScale="1" pageWidth="827" pageHeight="1169" math="0" shadow="0">
      <root>
        <mxCell id="WIyWlLk6GJQsqaUBKTNV-0" />
        <mxCell id="WIyWlLk6GJQsqaUBKTNV-1" parent="WIyWlLk6GJQsqaUBKTNV-0" />
        <mxCell id="WIyWlLk6GJQsqaUBKTNV-2" value="" style="rounded=0;html=1;jettySize=auto;orthogonalLoop=1;fontSize=11;endArrow=block;endFill=0;endSize=8;strokeWidth=1;shadow=0;labelBackgroundColor=none;edgeStyle=orthogonalEdgeStyle;entryX=0.5;entryY=0;entryDx=0;entryDy=0;" parent="WIyWlLk6GJQsqaUBKTNV-1" source="WIyWlLk6GJQsqaUBKTNV-3" target="c65QFNNtqQPkYfJUz6uE-0" edge="1">
          <mxGeometry relative="1" as="geometry">
            <mxPoint x="220" y="190" as="targetPoint" />
          </mxGeometry>
        </mxCell>
        <mxCell id="WIyWlLk6GJQsqaUBKTNV-3" value="START" style="rounded=1;whiteSpace=wrap;html=1;fontSize=12;glass=0;strokeWidth=1;shadow=0;" parent="WIyWlLk6GJQsqaUBKTNV-1" vertex="1">
          <mxGeometry x="160" y="60" width="120" height="40" as="geometry" />
        </mxCell>
        <mxCell id="WIyWlLk6GJQsqaUBKTNV-5" value="No" style="edgeStyle=orthogonalEdgeStyle;rounded=0;html=1;jettySize=auto;orthogonalLoop=1;fontSize=11;endArrow=block;endFill=0;endSize=8;strokeWidth=1;shadow=0;labelBackgroundColor=none;entryX=0.5;entryY=0;entryDx=0;entryDy=0;exitX=1;exitY=0.5;exitDx=0;exitDy=0;" parent="WIyWlLk6GJQsqaUBKTNV-1" source="WIyWlLk6GJQsqaUBKTNV-6" edge="1" target="c65QFNNtqQPkYfJUz6uE-12">
          <mxGeometry x="0.3085" y="20" relative="1" as="geometry">
            <mxPoint as="offset" />
            <mxPoint x="320" y="485" as="targetPoint" />
            <mxPoint x="280" y="410" as="sourcePoint" />
          </mxGeometry>
        </mxCell>
        <mxCell id="WIyWlLk6GJQsqaUBKTNV-6" value="Is guess&lt;br&gt;correct?" style="rhombus;whiteSpace=wrap;html=1;shadow=0;fontFamily=Helvetica;fontSize=12;align=center;strokeWidth=1;spacing=6;spacingTop=-4;" parent="WIyWlLk6GJQsqaUBKTNV-1" vertex="1">
          <mxGeometry x="170" y="365" width="100" height="80" as="geometry" />
        </mxCell>
        <mxCell id="WIyWlLk6GJQsqaUBKTNV-8" value="Yes" style="rounded=0;html=1;jettySize=auto;orthogonalLoop=1;fontSize=11;endArrow=block;endFill=0;endSize=8;strokeWidth=1;shadow=0;labelBackgroundColor=none;edgeStyle=orthogonalEdgeStyle;" parent="WIyWlLk6GJQsqaUBKTNV-1" source="WIyWlLk6GJQsqaUBKTNV-10" target="WIyWlLk6GJQsqaUBKTNV-11" edge="1">
          <mxGeometry x="0.3333" y="20" relative="1" as="geometry">
            <mxPoint as="offset" />
          </mxGeometry>
        </mxCell>
        <mxCell id="WIyWlLk6GJQsqaUBKTNV-10" value="Is word&lt;br&gt;complete?" style="rhombus;whiteSpace=wrap;html=1;shadow=0;fontFamily=Helvetica;fontSize=12;align=center;strokeWidth=1;spacing=6;spacingTop=-4;" parent="WIyWlLk6GJQsqaUBKTNV-1" vertex="1">
          <mxGeometry x="70" y="570" width="100" height="80" as="geometry" />
        </mxCell>
        <mxCell id="WIyWlLk6GJQsqaUBKTNV-11" value="You win" style="rounded=1;whiteSpace=wrap;html=1;fontSize=12;glass=0;strokeWidth=1;shadow=0;" parent="WIyWlLk6GJQsqaUBKTNV-1" vertex="1">
          <mxGeometry x="60" y="750" width="120" height="40" as="geometry" />
        </mxCell>
        <mxCell id="KCHkn0Gc9GB1CBTvZht9-0" value="Run out&lt;br&gt;of lives?" style="rhombus;whiteSpace=wrap;html=1;" parent="WIyWlLk6GJQsqaUBKTNV-1" vertex="1">
          <mxGeometry x="270" y="570" width="100" height="80" as="geometry" />
        </mxCell>
        <mxCell id="KCHkn0Gc9GB1CBTvZht9-3" value="You lose" style="rounded=1;whiteSpace=wrap;html=1;" parent="WIyWlLk6GJQsqaUBKTNV-1" vertex="1">
          <mxGeometry x="270" y="750" width="100" height="40" as="geometry" />
        </mxCell>
        <mxCell id="KCHkn0Gc9GB1CBTvZht9-9" value="Yes" style="rounded=0;html=1;jettySize=auto;orthogonalLoop=1;fontSize=11;endArrow=block;endFill=0;endSize=8;strokeWidth=1;shadow=0;labelBackgroundColor=none;edgeStyle=orthogonalEdgeStyle;exitX=0.5;exitY=1;exitDx=0;exitDy=0;" parent="WIyWlLk6GJQsqaUBKTNV-1" source="KCHkn0Gc9GB1CBTvZht9-0" target="KCHkn0Gc9GB1CBTvZht9-3" edge="1">
          <mxGeometry y="20" relative="1" as="geometry">
            <mxPoint as="offset" />
            <mxPoint x="374.5" y="525" as="sourcePoint" />
            <mxPoint x="374.5" y="565" as="targetPoint" />
          </mxGeometry>
        </mxCell>
        <mxCell id="KCHkn0Gc9GB1CBTvZht9-13" value="No" style="edgeStyle=orthogonalEdgeStyle;rounded=0;html=1;jettySize=auto;orthogonalLoop=1;fontSize=11;endArrow=block;endFill=0;endSize=8;strokeWidth=1;shadow=0;labelBackgroundColor=none;exitX=0;exitY=0.5;exitDx=0;exitDy=0;entryX=0;entryY=0.5;entryDx=0;entryDy=0;" parent="WIyWlLk6GJQsqaUBKTNV-1" source="WIyWlLk6GJQsqaUBKTNV-10" target="c65QFNNtqQPkYfJUz6uE-4" edge="1">
          <mxGeometry x="-0.9086" y="10" relative="1" as="geometry">
            <mxPoint as="offset" />
            <mxPoint x="280" y="495" as="sourcePoint" />
            <mxPoint x="50" y="730" as="targetPoint" />
            <Array as="points">
              <mxPoint x="40" y="610" />
              <mxPoint x="40" y="320" />
            </Array>
          </mxGeometry>
        </mxCell>
        <mxCell id="KCHkn0Gc9GB1CBTvZht9-16" value="No" style="edgeStyle=orthogonalEdgeStyle;rounded=0;html=1;jettySize=auto;orthogonalLoop=1;fontSize=11;endArrow=block;endFill=0;endSize=8;strokeWidth=1;shadow=0;labelBackgroundColor=none;exitX=1;exitY=0.5;exitDx=0;exitDy=0;entryX=1;entryY=0.5;entryDx=0;entryDy=0;" parent="WIyWlLk6GJQsqaUBKTNV-1" source="KCHkn0Gc9GB1CBTvZht9-0" edge="1" target="c65QFNNtqQPkYfJUz6uE-4">
          <mxGeometry x="-0.9086" y="-10" relative="1" as="geometry">
            <mxPoint as="offset" />
            <mxPoint x="280" y="495" as="sourcePoint" />
            <mxPoint x="520" y="390" as="targetPoint" />
            <Array as="points">
              <mxPoint x="400" y="610" />
              <mxPoint x="400" y="320" />
            </Array>
          </mxGeometry>
        </mxCell>
        <mxCell id="c65QFNNtqQPkYfJUz6uE-0" value="Generate a&lt;br&gt;random word" style="rounded=1;whiteSpace=wrap;html=1;" vertex="1" parent="WIyWlLk6GJQsqaUBKTNV-1">
          <mxGeometry x="160" y="140" width="120" height="40" as="geometry" />
        </mxCell>
        <mxCell id="c65QFNNtqQPkYfJUz6uE-1" value="Generate as many blanks&lt;br&gt;as letters in word" style="rounded=1;whiteSpace=wrap;html=1;" vertex="1" parent="WIyWlLk6GJQsqaUBKTNV-1">
          <mxGeometry x="145" y="220" width="150" height="50" as="geometry" />
        </mxCell>
        <mxCell id="c65QFNNtqQPkYfJUz6uE-3" value="" style="rounded=0;html=1;jettySize=auto;orthogonalLoop=1;fontSize=11;endArrow=block;endFill=0;endSize=8;strokeWidth=1;shadow=0;labelBackgroundColor=none;edgeStyle=orthogonalEdgeStyle;entryX=0.5;entryY=0;entryDx=0;entryDy=0;exitX=0.5;exitY=1;exitDx=0;exitDy=0;" edge="1" parent="WIyWlLk6GJQsqaUBKTNV-1" source="c65QFNNtqQPkYfJUz6uE-0" target="c65QFNNtqQPkYfJUz6uE-1">
          <mxGeometry relative="1" as="geometry">
            <mxPoint x="220" y="190" as="sourcePoint" />
            <mxPoint x="230" y="150" as="targetPoint" />
          </mxGeometry>
        </mxCell>
        <mxCell id="c65QFNNtqQPkYfJUz6uE-4" value="Ask the user to&lt;br&gt;guess a letter" style="rounded=1;whiteSpace=wrap;html=1;" vertex="1" parent="WIyWlLk6GJQsqaUBKTNV-1">
          <mxGeometry x="157.5" y="300" width="125" height="40" as="geometry" />
        </mxCell>
        <mxCell id="c65QFNNtqQPkYfJUz6uE-5" value="" style="rounded=0;html=1;jettySize=auto;orthogonalLoop=1;fontSize=11;endArrow=block;endFill=0;endSize=8;strokeWidth=1;shadow=0;labelBackgroundColor=none;edgeStyle=orthogonalEdgeStyle;entryX=0.5;entryY=0;entryDx=0;entryDy=0;exitX=0.5;exitY=1;exitDx=0;exitDy=0;" edge="1" parent="WIyWlLk6GJQsqaUBKTNV-1" source="c65QFNNtqQPkYfJUz6uE-1" target="c65QFNNtqQPkYfJUz6uE-4">
          <mxGeometry relative="1" as="geometry">
            <mxPoint x="230" y="190" as="sourcePoint" />
            <mxPoint x="230" y="230" as="targetPoint" />
          </mxGeometry>
        </mxCell>
        <mxCell id="c65QFNNtqQPkYfJUz6uE-6" value="" style="rounded=0;html=1;jettySize=auto;orthogonalLoop=1;fontSize=11;endArrow=block;endFill=0;endSize=8;strokeWidth=1;shadow=0;labelBackgroundColor=none;edgeStyle=orthogonalEdgeStyle;exitX=0.5;exitY=1;exitDx=0;exitDy=0;entryX=0.5;entryY=0;entryDx=0;entryDy=0;" edge="1" parent="WIyWlLk6GJQsqaUBKTNV-1" source="c65QFNNtqQPkYfJUz6uE-4" target="WIyWlLk6GJQsqaUBKTNV-6">
          <mxGeometry relative="1" as="geometry">
            <mxPoint x="230" y="280" as="sourcePoint" />
            <mxPoint x="220" y="440" as="targetPoint" />
          </mxGeometry>
        </mxCell>
        <mxCell id="c65QFNNtqQPkYfJUz6uE-7" value="Replace the blank&lt;br&gt;with the letter" style="rounded=1;whiteSpace=wrap;html=1;" vertex="1" parent="WIyWlLk6GJQsqaUBKTNV-1">
          <mxGeometry x="60" y="485" width="120" height="40" as="geometry" />
        </mxCell>
        <mxCell id="c65QFNNtqQPkYfJUz6uE-8" value="Yes" style="rounded=0;html=1;jettySize=auto;orthogonalLoop=1;fontSize=11;endArrow=block;endFill=0;endSize=8;strokeWidth=1;shadow=0;labelBackgroundColor=none;edgeStyle=orthogonalEdgeStyle;exitX=0;exitY=0.5;exitDx=0;exitDy=0;entryX=0.5;entryY=0;entryDx=0;entryDy=0;" edge="1" parent="WIyWlLk6GJQsqaUBKTNV-1" source="WIyWlLk6GJQsqaUBKTNV-6" target="c65QFNNtqQPkYfJUz6uE-7">
          <mxGeometry x="0.3571" y="-20" relative="1" as="geometry">
            <mxPoint as="offset" />
            <mxPoint x="380" y="535" as="sourcePoint" />
            <mxPoint x="380" y="595" as="targetPoint" />
          </mxGeometry>
        </mxCell>
        <mxCell id="c65QFNNtqQPkYfJUz6uE-12" value="Lose a life" style="rounded=1;whiteSpace=wrap;html=1;" vertex="1" parent="WIyWlLk6GJQsqaUBKTNV-1">
          <mxGeometry x="260" y="485" width="120" height="40" as="geometry" />
        </mxCell>
        <mxCell id="c65QFNNtqQPkYfJUz6uE-14" value="" style="rounded=0;html=1;jettySize=auto;orthogonalLoop=1;fontSize=11;endArrow=block;endFill=0;endSize=8;strokeWidth=1;shadow=0;labelBackgroundColor=none;edgeStyle=orthogonalEdgeStyle;entryX=0.5;entryY=0;entryDx=0;entryDy=0;exitX=0.5;exitY=1;exitDx=0;exitDy=0;" edge="1" parent="WIyWlLk6GJQsqaUBKTNV-1" source="c65QFNNtqQPkYfJUz6uE-7" target="WIyWlLk6GJQsqaUBKTNV-10">
          <mxGeometry relative="1" as="geometry">
            <mxPoint x="120" y="530" as="sourcePoint" />
            <mxPoint x="230" y="310" as="targetPoint" />
          </mxGeometry>
        </mxCell>
        <mxCell id="c65QFNNtqQPkYfJUz6uE-15" value="" style="rounded=0;html=1;jettySize=auto;orthogonalLoop=1;fontSize=11;endArrow=block;endFill=0;endSize=8;strokeWidth=1;shadow=0;labelBackgroundColor=none;edgeStyle=orthogonalEdgeStyle;entryX=0.5;entryY=0;entryDx=0;entryDy=0;exitX=0.5;exitY=1;exitDx=0;exitDy=0;" edge="1" parent="WIyWlLk6GJQsqaUBKTNV-1" source="c65QFNNtqQPkYfJUz6uE-12" target="KCHkn0Gc9GB1CBTvZht9-0">
          <mxGeometry relative="1" as="geometry">
            <mxPoint x="130" y="535" as="sourcePoint" />
            <mxPoint x="130" y="580" as="targetPoint" />
          </mxGeometry>
        </mxCell>
      </root>
    </mxGraphModel>
  </diagram>
</mxfile>
